<svg width="160" height="64" fill="none" xmlns="http://www.w3.org/2000/svg"><path d="M72.486 33.18c0 5.244-4.11 9.108-9.156 9.108-5.045 0-9.157-3.864-9.157-9.108 0-5.28 4.111-9.108 9.157-9.108 5.045 0 9.156 3.828 9.156 9.108zm-4.008 0c0-3.277-2.383-5.519-5.148-5.519-2.766 0-5.148 2.242-5.148 5.52 0 3.243 2.382 5.518 5.148 5.518 2.765 0 5.148-2.279 5.148-5.519zm23.762 0c0 5.244-4.111 9.108-9.157 9.108-5.045 0-9.156-3.864-9.156-9.108 0-5.276 4.11-9.108 9.156-9.108S92.24 27.9 92.24 33.18zm-4.008 0c0-3.277-2.383-5.519-5.149-5.519-2.765 0-5.148 2.242-5.148 5.52 0 3.243 2.383 5.518 5.148 5.518 2.766 0 5.148-2.279 5.148-5.519zm22.938-8.557v16.351c0 6.726-3.975 9.474-8.675 9.474-4.424 0-7.087-2.953-8.09-5.367l3.49-1.45c.62 1.482 2.143 3.232 4.596 3.232 3.008 0 4.872-1.852 4.872-5.339v-1.31h-.139c-.898 1.105-2.626 2.07-4.807 2.07-4.564 0-8.745-3.967-8.745-9.07 0-5.142 4.181-9.142 8.745-9.142 2.177 0 3.905.965 4.807 2.037h.139v-1.482h3.807v-.004zm-3.523 8.59c0-3.207-2.144-5.552-4.872-5.552-2.766 0-5.083 2.345-5.083 5.552 0 3.174 2.317 5.486 5.083 5.486 2.728 0 4.872-2.312 4.872-5.486zm9.799-18.174v26.69h-3.91V15.04h3.91zm15.235 21.139l3.111 2.07c-1.004 1.482-3.424 4.036-7.605 4.036-5.185 0-9.058-4-9.058-9.108 0-5.416 3.905-9.108 8.609-9.108 4.737 0 7.054 3.762 7.811 5.794l.416 1.035-12.202 5.043c.934 1.827 2.387 2.76 4.424 2.76 2.041 0 3.457-1.003 4.494-2.522zm-9.577-3.277l8.157-3.38c-.449-1.137-1.798-1.93-3.387-1.93-2.037 0-4.872 1.795-4.77 5.31zm-83.729-2.09v-3.864h13.05c.127.674.193 1.47.193 2.333 0 2.899-.794 6.484-3.354 9.038-2.49 2.587-5.671 3.967-9.885 3.967C31.568 42.285 25 35.936 25 28.142 25 20.348 31.568 14 39.379 14c4.32 0 7.4 1.692 9.712 3.897l-2.733 2.727c-1.658-1.553-3.905-2.76-6.983-2.76-5.704 0-10.165 4.587-10.165 10.278 0 5.692 4.46 10.278 10.165 10.278 3.7 0 5.806-1.482 7.156-2.829 1.095-1.092 1.815-2.653 2.099-4.784l-9.255.004z" fill="#C3CBCD"/></svg>