<svg width="160" height="64" fill="none" xmlns="http://www.w3.org/2000/svg"><path d="M43.025 44.13c-1.534.284-3.096.37-4.71.595l-4.927-15.179v15.831c-1.534.17-2.934.396-4.388.623V17h4.092l5.6 16.454V17h4.333v27.13zm8.48-16.51c1.67 0 4.227-.085 5.761-.085v4.531c-1.911 0-4.146 0-5.76.085v6.74c2.53-.17 5.06-.396 7.617-.481v4.361l-11.925.992V17h11.925v4.531h-7.618v6.09zm23.636-6.089h-4.469v20.844c-1.453 0-2.907 0-4.307.057v-20.9h-4.468V17H75.14v4.531zm6.999 5.778h5.896v4.53H82.14V42.12h-4.227V17h12.034v4.531H82.14v5.778zm14.806 10.846c2.45.057 4.926.255 7.322.397v4.474c-3.849-.255-7.699-.51-11.63-.594V17h4.308v21.155zm10.956 5.183c1.373.085 2.827.17 4.227.34V17h-4.227v26.338zM131 17l-5.465 13.792L131 46c-1.615-.227-3.231-.538-4.846-.821l-3.095-8.383-3.15 7.703c-1.561-.283-3.069-.368-4.63-.595l5.545-13.282L115.817 17h4.63l2.827 7.618L126.289 17H131z" fill="#C3CBCD"/></svg>