<svg width="70" height="32" fill="none" xmlns="http://www.w3.org/2000/svg"><path d="M12.096 22.336V25H1.932V7.648H5.16v14.688h6.936zm18.443-6.012c0 1.272-.212 2.452-.636 3.54a8.234 8.234 0 01-1.776 2.808 8.168 8.168 0 01-2.772 1.86c-1.08.44-2.28.66-3.6.66-1.312 0-2.508-.22-3.588-.66a8.298 8.298 0 01-2.784-1.86 8.386 8.386 0 01-1.788-2.808c-.424-1.088-.636-2.268-.636-3.54 0-1.272.212-2.448.636-3.528a8.36 8.36 0 011.788-2.82 8.152 8.152 0 012.784-1.848c1.08-.448 2.276-.672 3.588-.672.88 0 1.708.104 2.484.312.776.2 1.488.488 2.136.864.648.368 1.228.82 1.74 1.356.52.528.96 1.12 1.32 1.776.36.656.632 1.368.816 2.136a9.96 9.96 0 01.288 2.424zm-3.3 0c0-.952-.128-1.804-.384-2.556-.256-.76-.62-1.404-1.092-1.932a4.665 4.665 0 00-1.728-1.212c-.672-.28-1.432-.42-2.28-.42-.848 0-1.612.14-2.292.42a4.799 4.799 0 00-1.728 1.212c-.472.528-.836 1.172-1.092 1.932-.256.752-.384 1.604-.384 2.556s.128 1.808.384 2.568c.256.752.62 1.392 1.092 1.92.48.52 1.056.92 1.728 1.2.68.28 1.444.42 2.292.42.848 0 1.608-.14 2.28-.42a4.73 4.73 0 001.728-1.2c.472-.528.836-1.168 1.092-1.92.256-.76.384-1.616.384-2.568zm20.64-.024v7.02a9.29 9.29 0 01-2.82 1.428c-.993.296-2.057.444-3.193.444-1.416 0-2.7-.22-3.852-.66-1.144-.44-2.124-1.052-2.94-1.836a8.084 8.084 0 01-1.872-2.808c-.44-1.088-.66-2.276-.66-3.564 0-1.304.212-2.5.636-3.588a8.14 8.14 0 011.8-2.808c.784-.784 1.732-1.392 2.844-1.824 1.112-.432 2.36-.648 3.744-.648.704 0 1.36.056 1.968.168a9.45 9.45 0 011.704.468 7.093 7.093 0 011.44.708c.432.28.828.588 1.188.924l-.924 1.464c-.144.232-.332.376-.564.432-.232.048-.484-.012-.756-.18l-.792-.456a5.04 5.04 0 00-.888-.396 7.001 7.001 0 00-1.092-.276 7.936 7.936 0 00-1.392-.108c-.856 0-1.632.144-2.328.432-.688.288-1.276.7-1.764 1.236a5.571 5.571 0 00-1.128 1.932c-.264.752-.396 1.592-.396 2.52 0 .992.14 1.88.42 2.664.288.776.688 1.436 1.2 1.98.52.536 1.144.948 1.872 1.236.728.28 1.54.42 2.436.42.64 0 1.212-.068 1.716-.204.504-.136.996-.32 1.476-.552v-3.144h-2.184c-.208 0-.372-.056-.492-.168a.61.61 0 01-.168-.432V16.3h5.76zm19.857.024c0 1.272-.212 2.452-.636 3.54a8.234 8.234 0 01-1.776 2.808 8.168 8.168 0 01-2.772 1.86c-1.08.44-2.28.66-3.6.66-1.312 0-2.508-.22-3.588-.66a8.298 8.298 0 01-2.784-1.86 8.386 8.386 0 01-1.788-2.808c-.424-1.088-.636-2.268-.636-3.54 0-1.272.212-2.448.636-3.528a8.36 8.36 0 011.788-2.82 8.152 8.152 0 012.784-1.848c1.08-.448 2.276-.672 3.588-.672.88 0 1.708.104 2.484.312.776.2 1.488.488 2.136.864.648.368 1.228.82 1.74 1.356.52.528.96 1.12 1.32 1.776.36.656.632 1.368.816 2.136a9.96 9.96 0 01.288 2.424zm-3.3 0c0-.952-.128-1.804-.384-2.556-.256-.76-.62-1.404-1.092-1.932a4.665 4.665 0 00-1.728-1.212c-.672-.28-1.432-.42-2.28-.42-.848 0-1.612.14-2.292.42a4.799 4.799 0 00-1.728 1.212c-.472.528-.836 1.172-1.092 1.932-.256.752-.384 1.604-.384 2.556s.128 1.808.384 2.568c.256.752.62 1.392 1.092 1.92.48.52 1.056.92 1.728 1.2.68.28 1.444.42 2.292.42.848 0 1.608-.14 2.28-.42a4.73 4.73 0 001.728-1.2c.472-.528.836-1.168 1.092-1.92.256-.76.384-1.616.384-2.568z" fill="#3C64B1"/></svg>