<svg width="35" height="35" fill="none" xmlns="http://www.w3.org/2000/svg"><path d="M17.5 21.875a4.375 4.375 0 100-8.75 4.375 4.375 0 000 8.75z" stroke="#3C64B1" stroke-width="2" stroke-linecap="round" stroke-linejoin="round"/><path d="M28.292 21.875a2.406 2.406 0 00.48 2.654l.088.088a2.917 2.917 0 01-2.063 4.982 2.918 2.918 0 01-2.064-.855l-.087-.088a2.406 2.406 0 00-2.654-.481 2.406 2.406 0 00-1.459 2.202v.248a2.916 2.916 0 11-5.833 0v-.131a2.406 2.406 0 00-1.575-2.202 2.406 2.406 0 00-2.654.48l-.088.088a2.916 2.916 0 01-4.76-.946 2.917 2.917 0 01.633-3.18l.088-.088a2.406 2.406 0 00.481-2.654 2.406 2.406 0 00-2.202-1.459h-.248a2.917 2.917 0 110-5.833h.131a2.406 2.406 0 002.202-1.575 2.406 2.406 0 00-.48-2.654l-.088-.088a2.917 2.917 0 114.127-4.127l.087.088a2.406 2.406 0 002.654.481h.117a2.406 2.406 0 001.458-2.202v-.248a2.917 2.917 0 015.834 0v.131a2.406 2.406 0 001.458 2.202 2.406 2.406 0 002.654-.48l.088-.088a2.917 2.917 0 014.982 2.063 2.916 2.916 0 01-.855 2.064l-.088.087a2.406 2.406 0 00-.481 2.654v.117a2.406 2.406 0 002.202 1.458h.248a2.916 2.916 0 110 5.834h-.131a2.407 2.407 0 00-2.202 1.458v0z" stroke="#3C64B1" stroke-width="2" stroke-linecap="round" stroke-linejoin="round"/></svg>