<svg width="97" height="42" viewBox="0 0 97 42" fill="none" xmlns="http://www.w3.org/2000/svg">
<path d="M55.7268 28.2632V25.993C55.7268 23.7232 55.3405 23.365 54.9254 22.8573L55.1627 22.2001C55.1627 22.2001 56.3205 21.7817 57.6857 21.7817C58.3685 21.7817 59.0512 21.7817 59.8534 22.1704C59.7344 24.1713 59.7052 24.5001 59.6453 26.979C59.6157 27.8448 59.6157 29.7264 59.6157 29.7264C59.1703 29.7264 58.7551 29.7859 58.221 29.9056C56.8551 30.1742 54.3321 30.7718 51.9574 30.7718C46.0789 30.7718 42.8433 26.7391 42.8433 20.9155C42.8433 14.6137 46.8807 10.1934 52.9366 10.1934C55.7575 10.1934 58.3991 11.3575 59.1115 12.8214C59.1115 13.3889 58.3097 15.2705 56.8846 15.8979L56.3209 15.4497C56.3209 14.6732 54.8663 12.2839 52.5806 12.2839C48.8995 12.2839 47.2962 15.838 47.2962 19.6313C47.2962 24.3502 49.2551 28.5916 53.3517 28.5916C54.1828 28.592 55.7268 28.2632 55.7268 28.2632Z" fill="#1A181D"/>
<path d="M72.4979 10.1943C77.1291 10.1943 80.9876 13.5692 80.9876 20.1102C80.8693 26.1435 76.9805 30.7728 70.7464 30.7728C66.7385 30.7728 62.6123 27.3675 62.6123 20.7975C62.6119 14.5246 66.7977 10.1943 72.4979 10.1943ZM72.1711 28.6822C74.6941 28.6822 76.5646 25.307 76.5646 21.1259C76.5646 16.2872 74.1895 12.3444 71.4584 12.3444C68.9059 12.3444 67.0061 15.6895 67.0061 19.8413C67.0061 24.3813 69.2618 28.6822 72.1711 28.6822Z" fill="#1A181D"/>
<path d="M83.6282 27.4578C83.6282 27.0096 83.7764 26.5317 84.1036 26.0839C84.4891 27.4578 87.1016 28.3839 88.7048 28.3839C90.189 28.3839 92.119 27.8758 92.119 25.8448C92.119 22.6496 83.5103 21.2757 83.5103 15.7199C83.5103 13.0023 85.5283 10.1348 89.5365 10.1348C92.2078 10.1348 93.8705 11.1501 94.791 11.6879C94.8801 11.9568 94.9093 12.315 94.9093 12.7334C94.9093 13.4798 94.7015 14.5253 94.0191 15.2123L93.3367 15.0631C92.6835 13.0023 90.5457 12.1063 89.2101 12.1063C88.1115 12.1063 86.5981 12.6136 86.5981 14.2865C86.5981 18.0199 95.8297 18.9757 95.8297 24.9191C95.8297 28.115 93.0099 30.7735 88.8238 30.7735C85.8846 30.7735 83.6282 29.1902 83.6282 27.4578Z" fill="#1A181D"/>
<path d="M18.4308 1.25821L18.2085 1.12891L1.02891 11.1002L1.02197 31.0538L17.9722 40.9076L18.1942 41.0369L35.3738 31.0659L35.3804 11.112L18.4308 1.25821ZM18.2077 2.16373L34.0455 11.3702L29.1661 14.2017L18.2063 7.83007L17.9887 7.95644C17.9748 7.96378 17.9606 7.97076 17.9478 7.97995L7.24177 14.1944L2.36488 11.3588L18.2077 2.16373ZM18.2015 17.7999L21.435 22.9659H14.9673L18.2015 17.7999ZM13.8428 23.082L7.6821 26.6699L7.68685 14.9702L17.7565 9.12534V16.8297L13.8428 23.082ZM18.6466 16.8297V9.1213L28.7206 14.9776L28.7162 26.6769L22.5607 23.082L18.6466 16.8297ZM17.7517 39.7445L1.9125 30.5373L1.91943 12.135L6.79596 14.9698L6.79194 27.7054L7.01686 27.8358C7.01759 27.8366 7.01832 27.8369 7.01868 27.8377L17.7517 34.0763V39.7445ZM8.12609 27.4464L14.2805 23.8619H22.1222L28.2726 27.4531L18.1975 33.3009L8.12609 27.4464ZM34.4836 30.5483L18.6422 39.742V34.0771L29.38 27.8447H29.3804L29.6068 27.7139L29.6108 14.9783L34.4898 12.1464L34.4836 30.5483Z" fill="url(#paint0_linear)"/>
<defs>
<linearGradient id="paint0_linear" x1="42.0872" y1="1.12891" x2="37.7909" y2="40.5688" gradientUnits="userSpaceOnUse">
<stop stop-color="#5861FE"/>
<stop offset="0.057727" stop-color="#5567F9"/>
<stop offset="0.6956" stop-color="#39A3C9"/>
<stop offset="1" stop-color="#2EBAB6"/>
</linearGradient>
</defs>
</svg>
