<svg width="56" height="56" viewBox="0 0 56 56" fill="none" xmlns="http://www.w3.org/2000/svg">
<path d="M13.0718 32.8138C13.2967 32.99 13.4091 33.1966 13.4091 33.4336C13.4091 33.8164 13.2511 34.1445 12.9351 34.418C12.6252 34.6914 12.2212 34.8281 11.7229 34.8281C11.413 34.8281 11.1031 34.7795 10.7932 34.6823C10.4833 34.5851 10.2251 34.4757 10.0185 34.3542C9.81186 34.2266 9.61438 34.0807 9.42601 33.9167C9.24372 33.7526 9.11916 33.6402 9.05232 33.5794C8.99155 33.5187 8.94902 33.4701 8.92471 33.4336L7 35.4438H16.8423C17.1663 34.8692 17.3284 34.2295 17.3284 33.5247C17.3284 32.9049 17.2159 32.3581 16.9911 31.8841C16.7663 31.4102 16.4746 31.0334 16.1161 30.7539C15.7637 30.4744 15.3687 30.2344 14.9312 30.0339C14.4998 29.8333 14.0684 29.6693 13.637 29.5417C13.2116 29.408 12.8197 29.2834 12.4612 29.168C12.1087 29.0464 11.8201 28.9006 11.5953 28.7305C11.3705 28.5543 11.258 28.3477 11.258 28.1107C11.258 27.8129 11.3917 27.5516 11.6591 27.3268C11.9264 27.102 12.2606 26.9896 12.6617 26.9896C13.0445 26.9896 13.4212 27.0868 13.7919 27.2812C14.1686 27.4757 14.4147 27.6306 14.5302 27.7461C14.6517 27.8555 14.7429 27.9466 14.8036 28.0195L16.8635 25.8685L16.6903 25.6862C16.5931 25.5464 16.4169 25.3885 16.1617 25.2122C15.9065 25.0299 15.6087 24.8477 15.2685 24.6654C14.9343 24.4831 14.5028 24.3281 13.9742 24.2005C13.4455 24.0668 12.8835 24 12.288 24C10.8418 24 9.65388 24.4041 8.72419 25.2122C7.80058 26.0143 7.33877 26.9501 7.33877 28.0195C7.33877 28.6393 7.45119 29.1862 7.67601 29.6602C7.90084 30.1341 8.18947 30.5109 8.5419 30.7904C8.90041 31.0699 9.29233 31.3099 9.71768 31.5104C10.1491 31.7109 10.5805 31.878 11.012 32.0117C11.4495 32.1393 11.8444 32.2608 12.1968 32.3763C12.5554 32.4918 12.847 32.6376 13.0718 32.8138Z" fill="#4D4D4D"/>
<path d="M18.4549 35.444H27.7883V32.2721H22.0005V24.3737H18.4549V35.444Z" fill="#4D4D4D"/>
<path d="M28.7143 35.444V24.3737H32.2599V35.444H28.7143Z" fill="#4D4D4D"/>
<path d="M36.8526 29.6966L40.4893 32.2721L44.1351 29.6966V35.444H47.6807V24.3737H44.5088L40.4893 28L36.4789 24.3737H33.307V35.444H36.8526V29.6966Z" fill="#4D4D4D"/>
</svg>
