<svg width="56" height="56" viewBox="0 0 56 56" fill="none" xmlns="http://www.w3.org/2000/svg">
<path d="M18 9.14047H23.1014V10.4375H19.4893V11.9217H22.3084V13.2187H19.4893V15.8548H18V9.14047Z" fill="#333333"/>
<path d="M25.7708 10.9338C25.3389 11.3583 25.1229 11.8812 25.1229 12.5023C25.1229 13.1204 25.3389 13.6417 25.7708 14.0662C26.2028 14.4907 26.7283 14.703 27.3472 14.703C27.9694 14.703 28.4964 14.4907 28.9284 14.0662C29.3604 13.6417 29.5764 13.1204 29.5764 12.5023C29.5764 11.8812 29.3604 11.3583 28.9284 10.9338C28.4964 10.5061 27.9694 10.2923 27.3472 10.2923C26.7283 10.2923 26.2028 10.5061 25.7708 10.9338ZM24.6732 14.9746C23.9479 14.2878 23.5852 13.4622 23.5852 12.4977C23.5852 11.5331 23.9479 10.709 24.6732 10.0254C25.4017 9.34181 26.2931 9 27.3472 9C28.4046 9 29.2959 9.34181 30.0212 10.0254C30.7498 10.709 31.1141 11.5331 31.1141 12.4977C31.1141 13.4622 30.7498 14.2878 30.0212 14.9746C29.2959 15.6582 28.4046 16 27.3472 16C26.2931 16 25.4017 15.6582 24.6732 14.9746Z" fill="#333333"/>
<path d="M32.3038 15.8548V9.14047H35.3743C36.061 9.14047 36.6283 9.35429 37.0764 9.78194C37.5277 10.2065 37.7534 10.7278 37.7534 11.3458C37.7534 11.6143 37.7099 11.8656 37.6228 12.0997C37.5358 12.3338 37.4326 12.5226 37.3134 12.6662C37.1973 12.8098 37.078 12.9331 36.9555 13.0361C36.833 13.1391 36.7283 13.2094 36.6412 13.2468L36.5155 13.3124L38 15.8548H36.414L35.0794 13.5043H33.7931V15.8548H32.3038ZM36.2689 11.3458C36.2689 11.0836 36.1786 10.8667 35.9981 10.695C35.8208 10.5233 35.5968 10.4375 35.326 10.4375H33.7931V12.212H35.326C35.5968 12.212 35.8208 12.1293 35.9981 11.9639C36.1786 11.7953 36.2689 11.5893 36.2689 11.3458Z" fill="#333333"/>
<path d="M16.8007 44.1298H20.0183V47.3324C19.9879 47.3726 19.9383 47.4328 19.8698 47.513C19.805 47.5893 19.6583 47.7237 19.4297 47.9164C19.2049 48.105 18.9649 48.2736 18.7096 48.4221C18.4581 48.5666 18.1266 48.699 17.7151 48.8194C17.3075 48.9398 16.8864 49 16.4521 49C15.2024 49 14.147 48.5605 13.2859 47.6816C12.4286 46.7987 12 45.7371 12 44.497C12 43.2569 12.4286 42.1973 13.2859 41.3184C14.147 40.4395 15.2024 40 16.4521 40C16.8826 40 17.2922 40.0602 17.6809 40.1806C18.0695 40.297 18.3876 40.4395 18.6353 40.608C18.8867 40.7766 19.1077 40.9452 19.2982 41.1137C19.4926 41.2823 19.6316 41.4247 19.7154 41.5411L19.8469 41.7217L18.7324 42.8957C18.7096 42.8635 18.6772 42.8194 18.6353 42.7632C18.5972 42.703 18.5076 42.6027 18.3667 42.4622C18.2295 42.3217 18.079 42.1993 17.9152 42.095C17.7513 41.9866 17.5361 41.8883 17.2694 41.8C17.0027 41.7077 16.7302 41.6615 16.4521 41.6615C15.6863 41.6615 15.0462 41.9324 14.5318 42.4742C14.0174 43.0161 13.7603 43.6903 13.7603 44.497C13.7603 45.3037 14.0174 45.9779 14.5318 46.5197C15.0462 47.0615 15.6863 47.3324 16.4521 47.3324C16.8179 47.3324 17.1512 47.2763 17.4522 47.1639C17.7532 47.0475 17.9647 46.9311 18.0866 46.8147L18.2638 46.6582V45.4843H16.8007V44.1298Z" fill="#333333"/>
<path d="M24.5164 45.6709L22.5275 48.8134H20.5329L23.4019 44.3104L20.7673 40.1806H22.7618L24.5164 42.9559L26.2709 40.1806H28.2598L25.6251 44.3104L28.4941 48.8134H26.5053L24.5164 45.6709Z" fill="#333333"/>
<path d="M30.8949 40.1806H36.5129V41.6615L33.2953 48.8134H31.4836L34.6441 41.8482H30.8949V40.1806Z" fill="#333333"/>
<path d="M39.2564 42.402C38.9097 42.8957 38.7364 43.594 38.7364 44.497C38.7364 45.4 38.9097 46.0983 39.2564 46.592C39.6031 47.0856 40.0146 47.3324 40.4909 47.3324C40.9672 47.3324 41.3787 47.0856 41.7254 46.592C42.0721 46.0983 42.2455 45.4 42.2455 44.497C42.2455 43.594 42.0721 42.8957 41.7254 42.402C41.3787 41.9084 40.9672 41.6615 40.4909 41.6615C40.0146 41.6615 39.6031 41.9084 39.2564 42.402ZM42.977 41.2401C43.659 42.0629 44 43.1485 44 44.497C44 45.8455 43.659 46.9331 42.977 47.7599C42.295 48.5866 41.4663 49 40.4909 49C39.5155 49 38.6868 48.5866 38.0048 47.7599C37.3228 46.9331 36.9818 45.8455 36.9818 44.497C36.9818 43.1485 37.3228 42.0629 38.0048 41.2401C38.6868 40.4134 39.5155 40 40.4909 40C41.4663 40 42.295 40.4134 42.977 41.2401Z" fill="#333333"/>
<rect x="5.5" y="25.5" width="45" height="10" rx="1.5" stroke="#333333"/>
<path d="M7 25.5H49C49.8284 25.5 50.5 26.1716 50.5 27V29.5H5.5V27C5.5 26.1716 6.17157 25.5 7 25.5Z" stroke="#333333"/>
<rect x="17.5" y="19.5" width="21" height="6" stroke="#333333"/>
<rect x="10.5" y="23.5" width="2" height="2" stroke="#333333"/>
<rect x="43.5" y="23.5" width="2" height="2" stroke="#333333"/>
</svg>
