<svg xmlns="http://www.w3.org/2000/svg" viewBox="0 0 1133.86 320.88"><defs><style>.shape{fill:#fff}</style></defs><path class="shape" d="M948.64 19.4a4 4 0 0 0 .82-2.52 4.46 4.46 0 0 0-.48-2.13 3.37 3.37 0 0 0-1.31-1.41 6.22 6.22 0 0 0-1.81-.74 8.81 8.81 0 0 0-2.11-.23h-5.69v14.92h3.54v-5.93h1.22l3.23 5.93h4.21l-3.9-6.39a4.43 4.43 0 0 0 2.28-1.5m-5.35-.65h-1.71v-3.48h1.92c1.6 0 2.4.56 2.4 1.67s-.9 1.81-2.61 1.81zm0-15.17a16.25 16.25 0 1 0 16.24 16.24 16.27 16.27 0 0 0-16.2-16.24zm0 29a12.73 12.73 0 1 1 12.73-12.73 12.75 12.75 0 0 1-12.69 12.7zm-500 115.61q-33.18 0-54.82-20.76t-21.64-53.95q0-33.36 21.55-53.42T443.3 0q33.56 0 55.11 20.06T520 73.48q0 33.18-21.65 53.92t-55.05 20.76zm-28.9-43.3q11.22 12.33 28.9 12.32t29-12.32q11.32-12.31 11.32-31.38 0-18.66-11.32-30.78t-29-12.12q-17.69 0-28.9 12.12t-11.21 30.75q0 19.06 11.22 31.38zM203 148.16q-33.18 0-54.82-20.76t-21.67-53.92q0-33.36 21.55-53.42T203 0q33.56 0 55.11 20.06t21.55 53.42q0 33.18-21.65 53.92T203 148.16zm-28.9-43.3q11.22 12.33 28.9 12.32t29-12.32q11.33-12.31 11.32-31.38 0-18.66-11.32-30.78t-29-12.12q-17.68 0-28.9 12.12t-11.24 30.78q0 19.06 11.22 31.38zM532.6 3.94s1.52 47.85-4.93 81.61c-6.65 34.8-21.31 55.6-23.6 58.91h38.3c24.9-44 22.8-111.72 22.8-111.72h36.28v111.81h34V3.94zM662.1 176.5s1.52 47.86-4.94 81.64c-6.65 34.81-21.31 55.62-23.59 58.93h38.29c24.91-44 22.81-111.76 22.81-111.76h36.27v111.85h34V176.5zm383.38 140.61V176.5h88.38v29h-54.42v111.61zm-133 0V176.5h34v53.22h54.81V176.5h34v140.61h-34v-58.79h-54.85v58.79zm-134.39 0V176.5h33.56v92.55h.79l54-92.55h35.76v140.61h-33.56v-90.36H868l-53.62 90.36zm-265.85 0V176.5h33.56v92.55h.8l54-92.55h35.75v140.61h-33.56v-90.36h-.59l-53.63 90.36zm-58.37 3.77q-32.76 0-54.22-20.75t-21.45-53.52q0-33.17 21.75-53.53t54.52-20.36a83.1 83.1 0 0 1 29.69 5.47q14.4 5.46 22.94 15.19l-23 23a28.48 28.48 0 0 0-12.22-9.63 40.52 40.52 0 0 0-16.18-3.28q-17.68 0-29.1 12.21t-11.42 30.89q0 19.06 11.12 31.08t28.8 12q19.67 0 29.79-14.3l23.64 22.25q-20.12 23.29-54.67 23.28zm-203-3.77V176.5h122v140.61h-34V205.3h-54v111.81zm-134.39 0V176.5H150v92.55h.8l54-92.55h35.75v140.61H207v-90.36h-.6l-53.62 90.36zM0 317.11V176.5h56a79.41 79.41 0 0 1 16.78 1.69A59 59 0 0 1 88 183.75a28.5 28.5 0 0 1 11.6 11.32 34.67 34.67 0 0 1 4.27 17.57q0 11.33-6.16 19.07A35.07 35.07 0 0 1 80.83 243v.4a35.79 35.79 0 0 1 20.76 10.82q8 8.64 8 21.95a39.55 39.55 0 0 1-4.47 19.16 32.25 32.25 0 0 1-12.31 12.81 62.11 62.11 0 0 1-17.08 6.76A85.53 85.53 0 0 1 56 317.11zm32.77-84.61H51q9.54 0 14.8-4t5.26-11.32q0-13.69-21.65-13.7H32.77zm0 57.2h19.07q23.82 0 23.83-16.68 0-15.5-24-15.49h-18.9zm745.28-145.31V3.77h33.56v92.55h.79l54-92.55h35.74v140.62h-33.53V54H868l-53.62 90.37zm-131.53 0V3.77h33.36V61h.6l50.25-57.2h42.5l-60.58 64.72 67.22 75.87h-44.29l-55.3-64.75h-.4v64.75zm-341.8 0V32.77H265v-29h113.4v29h-39.72v111.62zM0 144.39V3.77h121.94v140.62H88V32.57H34v111.82z"/></svg>