<svg width="288" height="288" fill="none" xmlns="http://www.w3.org/2000/svg"><mask id="a" fill="#fff"><path d="M288 144a144 144 0 10-288 0 144 144 0 00288 0z"/></mask><path d="M144 288v2-2zm146-144c0-28.876-8.563-57.104-24.605-81.113l-3.326 2.222A142 142 0 01286 144h4zm-24.605-81.113a146.002 146.002 0 00-65.523-53.773l-1.531 3.695a142 142 0 0163.728 52.3l3.326-2.222zM199.872 9.114A146 146 0 00115.517.805l.78 3.924a142 142 0 0182.044 8.08l1.531-3.695zM115.517.805a146 146 0 00-74.754 39.958l2.828 2.828a142 142 0 0172.706-38.862l-.78-3.924zM40.763 40.763A146 146 0 00.805 115.517l3.924.78A142 142 0 0143.59 43.591l-2.828-2.828zM.805 115.517a146 146 0 008.309 84.355l3.695-1.531a142 142 0 01-8.08-82.044l-3.924-.78zm8.309 84.355a146.002 146.002 0 0053.773 65.523l2.222-3.326a142 142 0 01-52.3-63.728l-3.695 1.531zm53.773 65.523A146.005 146.005 0 00144 290v-4a142 142 0 01-78.89-23.931l-2.223 3.326zM144 290a145.995 145.995 0 00103.237-42.763l-2.828-2.828A142 142 0 01144 286v4zm103.237-42.763A145.995 145.995 0 00290 144h-4a142 142 0 01-41.591 100.409l2.828 2.828z" fill="#fff" mask="url(#a)"/><mask id="b" fill="#fff"><path d="M281.141 144a137.139 137.139 0 00-84.66-126.703A137.145 137.145 0 0017.295 196.483a137.141 137.141 0 00126.703 84.66A137.143 137.143 0 00281.141 144z"/></mask><path d="M143.998 281.143v1-1zM282.141 144c0-27.322-8.102-54.03-23.281-76.748l-1.663 1.111A136.14 136.14 0 01280.141 144h2zM258.86 67.252a138.138 138.138 0 00-61.997-50.879l-.765 1.848a136.145 136.145 0 0161.099 50.142l1.663-1.11zm-61.997-50.879a138.142 138.142 0 00-79.815-7.861l.39 1.961a136.144 136.144 0 0178.66 7.748l.765-1.848zm-79.815-7.861a138.143 138.143 0 00-70.731 37.807l1.414 1.414a136.144 136.144 0 0169.707-37.26l-.39-1.961zM46.317 46.319A138.143 138.143 0 008.51 117.05l1.962.39A136.143 136.143 0 0147.73 47.733l-1.414-1.414zM8.51 117.05a138.142 138.142 0 007.861 79.815l1.848-.765a136.144 136.144 0 01-7.748-78.66l-1.961-.39zm7.861 79.815a138.138 138.138 0 0050.88 61.997l1.11-1.663A136.144 136.144 0 0118.22 196.1l-1.848.765zm50.88 61.997a138.144 138.144 0 0076.747 23.281v-2a136.147 136.147 0 01-75.636-22.944l-1.112 1.663zm76.747 23.281a138.142 138.142 0 0097.682-40.461l-1.414-1.414a136.146 136.146 0 01-96.268 39.875v2zm97.682-40.461A138.142 138.142 0 00282.141 144h-2a136.146 136.146 0 01-39.875 96.268l1.414 1.414z" fill="#fff" mask="url(#b)"/><mask id="c" fill="#fff"><path d="M238.286 144a94.28 94.28 0 00-58.204-87.109A94.285 94.285 0 10238.286 144z"/></mask><path d="M144.001 238.285v1-1zM239.286 144a95.286 95.286 0 00-16.058-52.938l-1.663 1.11A93.289 93.289 0 01237.286 144h2zm-16.058-52.938a95.287 95.287 0 00-42.763-35.095l-.766 1.848a93.29 93.29 0 0141.866 34.358l1.663-1.111zm-42.763-35.095a95.287 95.287 0 00-55.054-5.422l.39 1.961a93.284 93.284 0 0153.898 5.309l.766-1.848zm-55.054-5.422a95.288 95.288 0 00-48.788 26.077l1.415 1.415a93.286 93.286 0 0147.763-25.53l-.39-1.962zM76.623 76.622a95.288 95.288 0 00-26.077 48.788l1.961.39a93.287 93.287 0 0125.53-47.763l-1.414-1.415zM50.546 125.41a95.286 95.286 0 005.422 55.054l1.848-.765a93.29 93.29 0 01-5.309-53.899l-1.961-.39zm5.422 55.054a95.286 95.286 0 0035.095 42.763l1.11-1.663a93.293 93.293 0 01-34.357-41.865l-1.848.765zm35.095 42.763A95.286 95.286 0 00144 239.285v-2a93.289 93.289 0 01-51.827-15.721l-1.111 1.663zM144 239.285a95.288 95.288 0 0067.377-27.908l-1.415-1.415A93.282 93.282 0 01144 237.285v2zm67.377-27.908A95.288 95.288 0 00239.286 144h-2a93.282 93.282 0 01-27.323 65.962l1.415 1.415z" fill="#fff" mask="url(#c)"/><g clip-path="url(#clip0)" fill="#fff"><path d="M32.703 175.809l8.59-5.554-1.382-4.761-17.563.259 1.346 4.64 10.283-.416-8.749 5.7 1.197 4.116 10.412.146-8.869 5.168 1.366 4.7 14.984-9.138-1.391-4.792-10.224-.068zm-6.77-23.995a4.091 4.091 0 011.828-1.524l.618 7.041a3.757 3.757 0 01-2.092-1.133 3.536 3.536 0 01-.895-2.137 3.46 3.46 0 01.541-2.247zm6.786-2.537c.45.381.814.853 1.07 1.384a5.25 5.25 0 01.502 1.882 4.378 4.378 0 01-.525 2.615 4.476 4.476 0 01-1.79 1.762l-1.056-12.013-1.275.112c-1.258.1-2.487.425-3.63.96a8.734 8.734 0 00-2.762 2.024 8.267 8.267 0 00-2.08 6.332 8.944 8.944 0 00.973 3.398 8.553 8.553 0 002.096 2.626 8.808 8.808 0 002.955 1.62 8.717 8.717 0 003.488.384 8.35 8.35 0 003.367-1.017 8.822 8.822 0 002.621-2.189 8.911 8.911 0 001.594-3.078 9.71 9.71 0 00.354-3.659 11.091 11.091 0 00-.938-3.723 10.886 10.886 0 00-2.233-3.094l-2.731 3.674zm-17.206-7.29l22.404.763.177-5.178-23.524-.802.943 5.217zm.489-9.564l22.285 2.422.561-5.152-23.399-2.543.553 5.273zm14.476-19.456a4.27 4.27 0 013.273-.544 4.27 4.27 0 012.677 1.959 4.39 4.39 0 01.455 3.368 5.525 5.525 0 01-.808 1.845 5 5 0 01-1.308 1.331l-5.76-1.387a4.66 4.66 0 01-.605-1.791 5.594 5.594 0 01.138-2.006 4.4 4.4 0 011.938-2.775zm.996-5.633a8.8 8.8 0 00-3.124 1.14 8.57 8.57 0 00-3.896 5.362 7.902 7.902 0 00-.21 2.369c.053.795.231 1.576.529 2.314l-7.565-1.82-.126 5.3 21.793 5.245 1.201-4.975-.934-.225c.53-.54.982-1.151 1.343-1.815a8.694 8.694 0 00.836-2.168 8.853 8.853 0 00.154-3.5 8.578 8.578 0 00-3.373-5.616 8.479 8.479 0 00-3.155-1.466 8.648 8.648 0 00-3.473-.145m5.02-13.126a4.106 4.106 0 012.336-.465l-2.836 6.477a3.762 3.762 0 01-1.293-1.996 3.537 3.537 0 01.24-2.304 3.462 3.462 0 011.553-1.712zm7.173 1.02c.212.55.305 1.137.276 1.725a5.279 5.279 0 01-.462 1.894 4.394 4.394 0 01-1.715 2.043 4.499 4.499 0 01-2.417.691l4.836-11.05-1.174-.512a10.483 10.483 0 00-3.645-.894 8.713 8.713 0 00-3.397.454 8.28 8.28 0 00-4.862 4.562 8.918 8.918 0 00-.776 3.448 8.53 8.53 0 00.579 3.308 8.777 8.777 0 001.817 2.835 8.658 8.658 0 002.878 2.008 8.394 8.394 0 003.442.719 8.712 8.712 0 003.376-.677 8.71 8.71 0 002.85-1.928 9.687 9.687 0 002.066-3.043 11.06 11.06 0 00.963-3.716 10.864 10.864 0 00-.475-3.786l-4.16 1.919zm13.625-28.301l9.282 4.3 3.297-3.706-9.58-14.706-3.212 3.612 5.833 8.469-9.491-4.357-2.85 3.205 5.424 8.879-9.103-4.742-3.255 3.658 15.728 7.795 3.317-3.73-5.39-8.677zm16.636-18.478c.811.012 1.6.265 2.267.725l-5.624 4.29a3.759 3.759 0 01-.162-2.371 3.547 3.547 0 011.329-1.898 3.47 3.47 0 012.19-.746zm5.778 4.366a4.219 4.219 0 01-.598 1.643 5.261 5.261 0 01-1.323 1.432 4.398 4.398 0 01-2.492.956 4.475 4.475 0 01-2.449-.566l9.594-7.32-.777-1.017a10.507 10.507 0 00-2.755-2.549 8.742 8.742 0 00-3.19-1.247 8.297 8.297 0 00-6.467 1.633 8.95 8.95 0 00-2.353 2.641 8.55 8.55 0 00-1.1 3.173 8.817 8.817 0 001.754 6.51 8.383 8.383 0 002.663 2.296 8.796 8.796 0 003.254 1.039 8.915 8.915 0 003.455-.301 9.739 9.739 0 003.284-1.66 11.092 11.092 0 002.646-2.784 10.829 10.829 0 001.423-3.541l-4.57-.338zM76.707 34.36l11.355 19.306 4.472-2.625L80.612 30.77l-3.905 3.59zm8.352-4.708l9.884 20.095 4.656-2.285-10.379-21.1-4.161 3.29zM109.3 31.45a4.275 4.275 0 012.208 2.474 4.276 4.276 0 01-.231 3.307 4.392 4.392 0 01-2.607 2.181 5.537 5.537 0 01-1.995.303 4.992 4.992 0 01-1.824-.395l-1.899-5.604a4.634 4.634 0 011.192-1.468 5.626 5.626 0 011.773-.955 4.421 4.421 0 013.383.157zm5.301-2.165a8.782 8.782 0 00-2.632-2.031 8.611 8.611 0 00-6.621-.43 7.926 7.926 0 00-2.116 1.089 7.489 7.489 0 00-1.677 1.682l-2.496-7.362-4.555 2.721 7.19 21.209 4.852-1.642-.307-.908c.74.158 1.499.214 2.254.165a8.715 8.715 0 002.282-.45 8.901 8.901 0 003.045-1.74 8.575 8.575 0 002.954-5.844 8.45 8.45 0 00-.442-3.448 8.638 8.638 0 00-1.731-3.011m13.762-2.747a4.105 4.105 0 011.639 1.725l-6.998 1.06a3.76 3.76 0 011-2.158 3.554 3.554 0 012.08-1.026 3.458 3.458 0 012.279.399zm2.962 6.604c-.353.472-.8.865-1.314 1.153-.573.32-1.2.53-1.85.62a4.403 4.403 0 01-2.646-.36 4.473 4.473 0 01-1.874-1.673l11.937-1.808-.192-1.265a10.475 10.475 0 00-1.188-3.557 8.697 8.697 0 00-2.196-2.628 8.284 8.284 0 00-6.458-1.675 8.953 8.953 0 00-3.333 1.185 8.547 8.547 0 00-2.492 2.253 8.775 8.775 0 00-1.433 3.049 8.669 8.669 0 00-.164 3.502 8.316 8.316 0 001.228 3.292 8.768 8.768 0 002.352 2.474 8.9 8.9 0 003.175 1.397 9.778 9.778 0 003.679.122 11.125 11.125 0 003.659-1.17 10.883 10.883 0 002.954-2.42l-3.844-2.491zm32.48-3.398l1.221 10.148 4.89.85 7.482-15.873-4.765-.83-4.143 9.41-1.283-10.354-4.227-.734-4.706 9.278-.753-10.229-4.826-.839 1.637 17.46 4.921.857 4.552-9.144zm24.502 4.412a4.08 4.08 0 01.574 2.307l-6.61-2.523a3.758 3.758 0 011.935-1.385 3.555 3.555 0 012.315.13 3.46 3.46 0 011.786 1.471zm-.682 7.204a4.238 4.238 0 01-1.713.356 5.299 5.299 0 01-1.915-.37 4.393 4.393 0 01-2.125-1.618 4.453 4.453 0 01-.803-2.377l11.278 4.304.456-1.195c.46-1.174.705-2.42.723-3.68a8.737 8.737 0 00-.615-3.367 8.269 8.269 0 00-4.791-4.637 8.947 8.947 0 00-3.486-.611 8.561 8.561 0 00-3.28.733 8.775 8.775 0 00-2.75 1.948 8.678 8.678 0 00-1.873 2.965 8.355 8.355 0 00-.555 3.47 8.8 8.8 0 00.824 3.31 8.909 8.909 0 002.074 2.778 9.75 9.75 0 003.14 1.919 11.16 11.16 0 003.762.785 10.924 10.924 0 003.764-.654l-2.115-4.06zm14.165-12.224l-10.505 19.78 4.582 2.428 11.03-20.768-5.107-1.44zm8.368 4.616L198.199 52.69l4.388 2.764 12.556-19.885-4.985-1.817zm11.171 21.578a4.26 4.26 0 01-2.27 4.239 4.283 4.283 0 01-1.626.47 4.406 4.406 0 01-3.228-1.076 5.537 5.537 0 01-1.301-1.538 5 5 0 01-.618-1.76l3.786-4.552a4.665 4.665 0 011.876.248c.637.228 1.227.57 1.742 1.008a4.404 4.404 0 011.639 2.961zm4.621 3.378a8.75 8.75 0 00.354-3.304 8.555 8.555 0 00-3.1-5.858 7.891 7.891 0 00-2.036-1.231 7.453 7.453 0 00-2.312-.548l4.972-5.978-4.707-2.451-14.324 17.222 3.94 3.27.615-.737c.251.713.6 1.388 1.038 2.005a8.78 8.78 0 001.578 1.706 8.884 8.884 0 003.078 1.68 8.591 8.591 0 006.534-.546 8.475 8.475 0 002.708-2.18 8.642 8.642 0 001.662-3.05m9.57 10.268a4.083 4.083 0 01-.611 2.298l-4.575-5.393a3.772 3.772 0 012.365-.283c.774.18 1.466.613 1.965 1.23.523.597.826 1.355.856 2.148zm-4.073 5.984a4.205 4.205 0 01-1.673-.513 5.27 5.27 0 01-1.5-1.246 4.407 4.407 0 01-1.082-2.439 4.474 4.474 0 01.444-2.472l7.804 9.2.978-.827a10.482 10.482 0 002.408-2.876c.573-1 .943-2.103 1.086-3.247a8.243 8.243 0 00-1.961-6.369 8.997 8.997 0 00-2.759-2.214 8.6 8.6 0 00-3.229-.935 8.806 8.806 0 00-3.349.382 8.7 8.7 0 00-3.071 1.698 8.346 8.346 0 00-2.161 2.772 8.794 8.794 0 00-.875 3.299 8.916 8.916 0 00.477 3.432 9.75 9.75 0 001.826 3.192c.82.996 1.808 1.84 2.919 2.498a10.877 10.877 0 003.612 1.24l.106-4.575zm21.356 29.426l-8.213 6.096 1.687 4.662 17.511-1.392-1.645-4.542-10.235 1.078 8.362-6.252-1.459-4.031-10.4.526 8.516-5.729-1.665-4.603-14.364 10.086 1.699 4.693 10.206-.592zm8.304 23.453a4.085 4.085 0 01-1.723 1.642l-1.076-6.987a3.765 3.765 0 012.161.994 3.547 3.547 0 011.033 2.075 3.457 3.457 0 01-.395 2.276zm-6.604 2.974a4.195 4.195 0 01-1.158-1.311 5.269 5.269 0 01-.625-1.844 4.378 4.378 0 01.354-2.644 4.462 4.462 0 011.671-1.875l1.838 11.918 1.266-.195a10.496 10.496 0 003.558-1.194 8.714 8.714 0 002.626-2.201 8.265 8.265 0 001.661-6.453 8.96 8.96 0 00-1.193-3.327 8.563 8.563 0 00-2.262-2.485 8.768 8.768 0 00-3.055-1.422 8.68 8.68 0 00-3.508-.157 8.372 8.372 0 00-3.292 1.235 8.8 8.8 0 00-2.472 2.354 8.907 8.907 0 00-1.39 3.174 9.697 9.697 0 00-.113 3.676 11.035 11.035 0 001.178 3.653 10.887 10.887 0 002.431 2.944l2.485-3.846zm17.646 6.214l-22.407.681.158 5.179 23.527-.713-1.278-5.147zm.128 9.577l-22.395-.994-.23 5.177 23.514 1.043-.889-5.226zm-13.212 20.36a4.271 4.271 0 01-6.697-2.633 4.396 4.396 0 010-1.733 5.557 5.557 0 01.689-1.893 4.945 4.945 0 011.222-1.41l5.835 1.017c.357.528.601 1.123.718 1.749a5.593 5.593 0 01-.008 2.011 4.415 4.415 0 01-1.759 2.892zm-.635 5.685a8.78 8.78 0 003.045-1.336 8.567 8.567 0 003.546-5.599 7.83 7.83 0 00.058-2.377 7.492 7.492 0 00-.674-2.277l7.666 1.337-.212-5.297-22.083-3.851-.88 5.042.945.165a8.166 8.166 0 00-1.225 1.897 9.02 9.02 0 00-.626 5.72 8.569 8.569 0 003.724 5.39 8.508 8.508 0 003.24 1.262 8.641 8.641 0 003.476-.076m-4.155 13.408c-.69.427-1.49.641-2.301.613l2.409-6.646a3.74 3.74 0 011.42 1.908c.231.76.199 1.575-.089 2.315a3.474 3.474 0 01-1.439 1.81zm-7.224-.555a4.172 4.172 0 01-.387-1.705 5.24 5.24 0 01.338-1.919 4.397 4.397 0 011.579-2.15 4.486 4.486 0 012.367-.844l-4.109 11.338 1.204.435a10.45 10.45 0 003.696.656 8.723 8.723 0 003.359-.672 8.272 8.272 0 004.558-4.867 8.93 8.93 0 00.55-3.491 8.56 8.56 0 00-.792-3.263 8.845 8.845 0 00-5-4.531 8.403 8.403 0 00-3.481-.494 8.831 8.831 0 00-3.3.883 8.913 8.913 0 00-2.745 2.119 9.758 9.758 0 00-1.864 3.17 11.056 11.056 0 00-.719 3.772c.017 1.281.26 2.55.719 3.746l4.027-2.183zm-15.01 33.103l-9.366-4.114-3.222 3.771 9.871 14.512 3.139-3.675-5.999-8.351 9.575 4.166 2.785-3.26-5.601-8.769 9.198 4.56 3.18-3.724-15.879-7.479-3.244 3.796 5.563 8.567zm-16.271 18.812a4.098 4.098 0 01-2.282-.681l5.539-4.401c.324.746.397 1.577.209 2.369a3.56 3.56 0 01-1.291 1.925 3.48 3.48 0 01-2.175.788zm-5.863-4.252c.07-.585.262-1.149.564-1.655a5.27 5.27 0 011.294-1.457 4.402 4.402 0 012.475-1.006 4.493 4.493 0 012.459.519l-9.448 7.508.798 1.001a10.473 10.473 0 002.804 2.494 8.736 8.736 0 003.214 1.185 8.3 8.3 0 006.435-1.762 8.921 8.921 0 002.299-2.686 8.524 8.524 0 001.037-3.195 8.77 8.77 0 00-.278-3.354 8.68 8.68 0 00-1.605-3.12 8.362 8.362 0 00-2.706-2.242 8.739 8.739 0 00-6.724-.606 9.716 9.716 0 00-3.25 1.726 11.092 11.092 0 00-2.591 2.835 10.84 10.84 0 00-1.352 3.567l4.575.248zm3.361 18.392l-11.735-19.078-4.42 2.713 12.321 20.032 3.834-3.667zm-8.25 4.869l-10.283-19.896-4.61 2.376 10.796 20.891 4.097-3.371zm-24.257-1.321a4.285 4.285 0 01-2.257-2.43 4.268 4.268 0 01.164-3.311 4.392 4.392 0 012.563-2.234 5.57 5.57 0 011.988-.343 4.984 4.984 0 011.832.359l2.011 5.565a4.636 4.636 0 01-1.163 1.492 5.587 5.587 0 01-1.752.99 4.437 4.437 0 01-3.386-.088zm-5.256 2.27a8.793 8.793 0 002.673 1.978 8.61 8.61 0 003.283.813 8.611 8.611 0 003.343-.518 7.848 7.848 0 002.095-1.13 7.452 7.452 0 001.643-1.715l2.644 7.311 4.499-2.814-7.616-21.058-4.819 1.739.327.901a8.175 8.175 0 00-2.257-.12 8.76 8.76 0 00-2.272.497 8.884 8.884 0 00-3.01 1.799 8.572 8.572 0 00-2.836 5.904 8.47 8.47 0 00.511 3.437 8.63 8.63 0 001.792 2.976m-13.714 3.028a4.075 4.075 0 01-1.674-1.692l6.974-1.2a3.747 3.747 0 01-.956 2.177 3.555 3.555 0 01-2.058 1.069 3.47 3.47 0 01-2.286-.354zm-3.096-6.543c.343-.479.783-.88 1.291-1.179a5.304 5.304 0 011.837-.658 4.398 4.398 0 012.653.307c.779.352 1.44.919 1.906 1.635l-11.898 2.048.218 1.261c.204 1.243.63 2.44 1.259 3.532a8.681 8.681 0 002.25 2.583 8.288 8.288 0 006.49 1.545 8.949 8.949 0 003.308-1.252 8.546 8.546 0 002.447-2.304 8.733 8.733 0 001.37-3.076 8.655 8.655 0 00.094-3.504 8.365 8.365 0 00-1.294-3.268 8.735 8.735 0 00-5.605-3.756 9.714 9.714 0 00-3.68-.05c-1.275.2-2.506.621-3.636 1.243a10.855 10.855 0 00-2.903 2.479l3.893 2.414zm-36.237 3.389l-1.084-10.162-4.878-.917-7.695 15.772 4.752.893 4.27-9.353 1.143 10.37 4.217.792 4.832-9.214.613 10.237 4.815.904-1.4-17.48-4.91-.923-4.675 9.081zm-24.432-4.742a4.091 4.091 0 01-.543-2.317l6.575 2.614a3.752 3.752 0 01-1.953 1.357 3.545 3.545 0 01-2.314-.162 3.469 3.469 0 01-1.765-1.492zm.78-7.195a4.201 4.201 0 011.717-.333 5.268 5.268 0 011.911.398 4.388 4.388 0 012.102 1.644c.48.707.748 1.536.771 2.39l-11.217-4.458-.474 1.188a10.442 10.442 0 00-.772 3.67 8.677 8.677 0 00.567 3.374 8.282 8.282 0 004.728 4.703 8.963 8.963 0 003.477.658 8.58 8.58 0 003.29-.689 8.825 8.825 0 004.689-4.849 8.35 8.35 0 00.604-3.461 8.705 8.705 0 00-2.816-6.127 9.712 9.712 0 00-3.113-1.961 11.125 11.125 0 00-3.751-.837 10.89 10.89 0 00-3.771.601l2.058 4.089zm-14.311 12.042l10.772-19.636-4.55-2.489-11.31 20.617 5.088 1.508zm-8.331-4.75l12.216-18.772-4.348-2.824-12.829 19.711 4.961 1.885zm-10.868-21.719a4.266 4.266 0 012.329-4.207 4.282 4.282 0 011.631-.448 4.399 4.399 0 013.212 1.12c.519.435.953.962 1.28 1.554.308.547.51 1.148.595 1.769l-3.848 4.5a4.699 4.699 0 01-1.873-.272 5.64 5.64 0 01-1.727-1.033 4.413 4.413 0 01-1.599-2.983zm-4.575-3.44a8.776 8.776 0 00-.399 3.299 8.58 8.58 0 003.02 5.899 7.924 7.924 0 002.02 1.259c.733.314 1.511.51 2.306.579l-5.054 5.91 4.673 2.514 14.557-17.026-3.896-3.323-.624.728a8.195 8.195 0 00-1.01-2.018 8.748 8.748 0 00-1.557-1.727 8.878 8.878 0 00-3.055-1.723 8.588 8.588 0 00-6.539.458 8.469 8.469 0 00-2.739 2.145 8.64 8.64 0 00-1.703 3.026m-9.425-10.39a4.078 4.078 0 01.641-2.29l4.503 5.454a3.765 3.765 0 01-2.367.249 3.552 3.552 0 01-1.95-1.255 3.458 3.458 0 01-.827-2.158zm4.153-5.929c.587.06 1.155.242 1.667.534.568.327 1.07.757 1.48 1.268a4.37 4.37 0 011.05 2.452 4.458 4.458 0 01-.476 2.466l-7.68-9.305-.989.814a10.507 10.507 0 00-2.447 2.844 8.708 8.708 0 00-1.128 3.233 8.244 8.244 0 001.875 6.394 8.937 8.937 0 002.729 2.25c.997.535 2.09.868 3.216.979a8.85 8.85 0 006.447-1.994 8.366 8.366 0 002.198-2.742 8.82 8.82 0 00.92-3.286 8.917 8.917 0 00-.433-3.44 9.701 9.701 0 00-1.782-3.215 11.099 11.099 0 00-2.884-2.538 10.93 10.93 0 00-3.596-1.288l-.167 4.574z"/></g><defs><clipPath id="clip0"><path fill="#fff" transform="translate(14.57 20.571)" d="M0 0h258.857v246H0z"/></clipPath></defs></svg>