<svg width="768" height="192" fill="none" xmlns="http://www.w3.org/2000/svg"><path d="M725.23 92.099a33.461 33.461 0 0111.084 15.962h-57.648a30.756 30.756 0 0110.695-16.223 28.873 28.873 0 0118-5.754 28.2 28.2 0 0117.869 6.015zm15.782 57.043a34.307 34.307 0 01-12 7.718 42.738 42.738 0 01-15.654 2.748 35.676 35.676 0 01-20.869-6.151 36.522 36.522 0 01-13.042-15.829h98.345v-10.467a85.899 85.899 0 00-5.216-30.22 71.247 71.247 0 00-14.48-23.942 67.448 67.448 0 00-22.727-15.997 67.277 67.277 0 00-27.226-5.458 72.75 72.75 0 00-28.304 5.496 69.725 69.725 0 00-22.824 15.175 72.29 72.29 0 00-20.869 51.021 68.482 68.482 0 005.869 28.128 72.078 72.078 0 0015.91 22.897 72.604 72.604 0 0023.869 15.175 79.07 79.07 0 0029.477 5.493 90.253 90.253 0 0030.915-4.971 88.654 88.654 0 0026.737-15.962l-27.911-24.854zM576.957 98.25a33.088 33.088 0 017.954 11.356 33.165 33.165 0 012.609 13.63 33.363 33.363 0 01-2.568 13.608 33.294 33.294 0 01-7.866 11.382 35.774 35.774 0 01-11.901 7.644 35.703 35.703 0 01-13.923 2.429 45.118 45.118 0 01-16.175-2.877 40.686 40.686 0 01-13.042-7.851V99.166a38.057 38.057 0 0113.042-8.244 45.616 45.616 0 0116.175-2.745c4.733-.102 9.44.735 13.85 2.464a35.92 35.92 0 0111.845 7.609zm46.565-2.88a71.942 71.942 0 00-15.001-22.633 69.909 69.909 0 00-22.905-15.371 69.738 69.738 0 00-27.049-5.3 64.19 64.19 0 00-19.174 2.88 60.968 60.968 0 00-17.348 8.635V0l-42.259 9.157v183.156h41.738v-7.851a66.437 66.437 0 0016.956 7.196 71.136 71.136 0 0018.782 2.487 72.116 72.116 0 0028.043-5.496c17.15-6.964 30.847-20.466 38.085-37.546a69.41 69.41 0 005.608-27.867 70.844 70.844 0 00-5.476-27.867zM415.092 9.157v183.156h42.262V0l-42.262 9.157zm-64.691 0v183.156h42.259V0l-42.259 9.157zm-67.929 82.942a33.468 33.468 0 0111.088 15.962h-57.652a30.756 30.756 0 0110.695-16.223 28.874 28.874 0 0118.001-5.754 28.196 28.196 0 0117.868 6.015zm15.782 57.043a34.26 34.26 0 01-12 7.718 42.713 42.713 0 01-15.65 2.748 35.672 35.672 0 01-20.869-6.151 36.492 36.492 0 01-13.043-15.829h98.345v-10.467a85.902 85.902 0 00-5.219-30.22 71.195 71.195 0 00-14.476-23.942 67.452 67.452 0 00-22.729-15.997 67.278 67.278 0 00-27.228-5.458 72.764 72.764 0 00-28.304 5.496 69.759 69.759 0 00-22.824 15.175 72.29 72.29 0 00-20.869 51.021 68.482 68.482 0 005.869 28.128 72.02 72.02 0 0015.914 22.897 72.551 72.551 0 0023.869 15.175 79.066 79.066 0 0029.477 5.493 90.23 90.23 0 0030.911-4.971 88.659 88.659 0 0026.738-15.962l-27.912-24.854zM92.201 112.248l23.998 80.065h40.435l37.825-138.415h-39.391l-20.087 81.636-24.779-81.636H75.245l-24.782 81.375-20.348-81.375H-9.797l37.564 138.415h40.697L92.2 112.248z" fill="#fff"/></svg>