<svg width="144" height="144" fill="none" xmlns="http://www.w3.org/2000/svg"><circle cx="72" cy="72" r="72" fill="#BFDC02"/><path d="M41.735 55.89l.002-.001C44.875 52.623 48.714 51 53.272 51c4.647 0 8.401 1.624 11.357 4.855 2.96 3.25 4.463 7.436 4.463 12.658 0 6.542-2.498 12.581-7.603 18.158-4.922 5.378-11.048 8.777-18.402 10.202l-.493-1.142c2.093-1.306 3.877-2.597 5.227-4.231 1.535-1.859 2.46-4.098 2.767-7.169l.083-.822-.793-.236c-4.401-1.308-7.605-3.256-9.71-5.781C38.075 74.978 37 71.81 37 67.916c0-4.774 1.58-8.756 4.735-12.026zm46.776 28.441l.082-.822-.793-.236c-4.401-1.308-7.605-3.256-9.71-5.781-2.093-2.513-3.168-5.682-3.168-9.576 0-4.776 1.567-8.758 4.721-12.026 3.154-3.267 6.98-4.89 11.55-4.89 4.633 0 8.388 1.624 11.344 4.856 2.959 3.25 4.463 7.435 4.463 12.657 0 6.542-2.498 12.581-7.603 18.158-4.918 5.374-11.026 8.772-18.357 10.198l-.461-1.13c2.091-1.31 3.864-2.604 5.202-4.244 1.516-1.86 2.423-4.098 2.73-7.164z" stroke="#0E1420" stroke-width="2"/></svg>