<svg width="97" height="24" fill="none" xmlns="http://www.w3.org/2000/svg"><path d="M90.526 11.339a4.12 4.12 0 011.365 1.965h-7.1a3.787 3.787 0 011.317-1.997 3.557 3.557 0 012.217-.709 3.474 3.474 0 012.201.74zm1.944 7.023c-.421.417-.925.74-1.478.95a5.263 5.263 0 01-1.928.338 4.395 4.395 0 01-2.57-.757 4.497 4.497 0 01-1.607-1.949H97v-1.288c.01-1.27-.207-2.53-.643-3.721a8.775 8.775 0 00-1.783-2.948 8.307 8.307 0 00-6.152-2.641 8.962 8.962 0 00-3.486.676 8.587 8.587 0 00-2.811 1.869 8.898 8.898 0 00-2.57 6.281 8.43 8.43 0 00.722 3.463 8.872 8.872 0 001.96 2.82 8.94 8.94 0 002.94 1.868 9.736 9.736 0 003.63.676c1.295.02 2.583-.188 3.807-.612a10.922 10.922 0 003.293-1.965l-3.437-3.06zm-20.205-6.266a4.073 4.073 0 011.3 3.076 4.109 4.109 0 01-1.284 3.077 4.406 4.406 0 01-3.18 1.24 5.553 5.553 0 01-1.993-.354 5.01 5.01 0 01-1.606-.967v-5.96a4.686 4.686 0 011.606-1.014 5.618 5.618 0 011.992-.338 4.414 4.414 0 013.165 1.24zM78 11.742a8.858 8.858 0 00-1.848-2.787A8.61 8.61 0 0070 6.41a7.907 7.907 0 00-2.362.355 7.509 7.509 0 00-2.136 1.063V0l-5.205 1.127v22.55h5.14v-.967c.652.391 1.355.69 2.089.886a8.765 8.765 0 002.313.306 8.884 8.884 0 003.454-.676 8.616 8.616 0 004.69-4.623c.465-1.083.7-2.252.691-3.43A8.719 8.719 0 0078 11.741zM52.33 1.127v22.55h5.204V0L52.33 1.127zm-7.968 0v22.55h5.205V0l-5.205 1.127zM35.996 11.34a4.12 4.12 0 011.365 1.965h-7.1a3.787 3.787 0 011.317-1.997 3.557 3.557 0 012.217-.709 3.474 3.474 0 012.201.74zm1.944 7.023c-.421.417-.925.74-1.478.95a5.262 5.262 0 01-1.928.338 4.395 4.395 0 01-2.57-.757 4.494 4.494 0 01-1.606-1.949H42.47v-1.288c.01-1.27-.207-2.53-.643-3.721a8.767 8.767 0 00-1.783-2.948 8.308 8.308 0 00-6.152-2.641 8.964 8.964 0 00-3.486.676 8.59 8.59 0 00-2.811 1.869 8.899 8.899 0 00-2.57 6.281 8.43 8.43 0 00.722 3.463 8.868 8.868 0 001.96 2.82 8.935 8.935 0 002.94 1.868 9.738 9.738 0 003.63.676c1.295.02 2.583-.188 3.807-.612a10.92 10.92 0 003.293-1.965l-3.437-3.06zM12.562 13.82l2.956 9.858h4.98l4.658-17.041h-4.851l-2.474 10.05-3.052-10.05h-4.305L7.422 16.654 4.916 6.636H0l4.626 17.04H9.64l2.923-9.857z" fill="#0E1420"/></svg>