<svg width="10" height="5" viewBox="0 0 10 5" fill="none" xmlns="http://www.w3.org/2000/svg">
<path d="M1.94206 0.287038C1.65145 0.0320764 1.20917 0.060975 0.954213 0.351584C0.699252 0.642194 0.72815 1.08447 1.01876 1.33943L1.94206 0.287038ZM5.12825 4.01361L4.66661 4.5398L5.1283 4.94486L5.58995 4.53976L5.12825 4.01361ZM9.23715 1.33939C9.52774 1.0844 9.5566 0.642125 9.30161 0.351538C9.04662 0.0609512 8.60435 0.0320914 8.31376 0.287078L9.23715 1.33939ZM1.01876 1.33943L4.66661 4.5398L5.5899 3.48741L1.94206 0.287038L1.01876 1.33943ZM5.58995 4.53976L9.23715 1.33939L8.31376 0.287078L4.66656 3.48745L5.58995 4.53976Z" fill="white"/>
</svg>
