<svg width="56" height="56" viewBox="0 0 56 56" fill="none" xmlns="http://www.w3.org/2000/svg">
<circle cx="28" cy="28" r="27" fill="#2579BF"/>
<path d="M22.24 19.8125C22.24 19.8125 16 24.625 16 27.6875V37.75C16 37.75 16.96 43 21.28 43H34.72C39.52 43 40 37.75 40 37.75V28.125C40 24.625 33.76 19.8125 33.76 19.8125M22.24 19.8125V28.375C22.24 28.375 23.68 31 28 31M22.24 19.8125H18.88V14H37.12V19.8125H33.76M33.76 19.8125V28.375C33.76 28.375 32.32 31 28 31M28 31V21.125" stroke="white" stroke-width="3"/>
<circle cx="28" cy="21" r="3" fill="white"/>
</svg>
