<svg width="31" height="32" viewBox="0 0 31 32" fill="none" xmlns="http://www.w3.org/2000/svg">
<path d="M20.61 0.183838H5.98961C3.12627 0.183838 0.799805 2.5511 0.799805 5.46465V12.8975C0.799805 15.8166 3.12627 18.1783 5.98961 18.1783H20.6046C23.4733 18.1783 25.7944 15.8111 25.7944 12.8975V5.46465C25.7998 2.5511 23.4733 0.183838 20.61 0.183838ZM17.0959 9.54803L10.2575 12.8644C10.0731 12.9527 9.86705 12.8203 9.86705 12.6106V5.76814C9.86705 5.55845 10.084 5.42602 10.2629 5.51983L17.1013 9.04589C17.3074 9.15073 17.302 9.4487 17.0959 9.54803Z" fill="#FF1313"/>
<path d="M20.2969 12.2629L30.2969 22.2629H24.2969L20.2969 26.2629V12.2629Z" fill="white"/>
<line x1="23.6896" y1="20.7059" x2="27.6896" y2="30.7059" stroke="white" stroke-width="3"/>
</svg>
