<svg width="25" height="25" fill="none" xmlns="http://www.w3.org/2000/svg"><rect width="25" height="25" rx="12.5" fill="#2B70E4"/><path fill-rule="evenodd" clip-rule="evenodd" d="M18.613 7.365c.67.18 1.198.707 1.378 1.377.334 1.222.321 3.77.321 3.77s0 2.536-.321 3.759a1.958 1.958 0 01-1.378 1.377c-1.222.322-6.113.322-6.113.322s-4.878 0-6.114-.335a1.958 1.958 0 01-1.377-1.377c-.322-1.21-.322-3.758-.322-3.758s0-2.536.322-3.758c.18-.67.721-1.21 1.377-1.39C7.61 7.03 12.5 7.03 12.5 7.03s4.89 0 6.113.335zM15.01 12.5l-4.067 2.342v-4.684L15.01 12.5z" fill="#fff"/></svg>