<svg width="56" height="56" viewBox="0 0 56 56" fill="none" xmlns="http://www.w3.org/2000/svg">
<path d="M14.714 44.116C14.714 44.8067 14.5227 45.3994 14.14 45.894C13.7667 46.3794 13.3047 46.7294 12.754 46.944C12.2033 47.1587 11.6107 47.266 10.976 47.266C10.0147 47.266 9.17467 47.0467 8.456 46.608C7.73733 46.1694 7.252 45.5114 7 44.634L9.184 44.06C9.27733 44.4054 9.47333 44.6994 9.772 44.942C10.0707 45.1754 10.4347 45.292 10.864 45.292C11.2467 45.292 11.5827 45.1894 11.872 44.984C12.1613 44.7787 12.306 44.4614 12.306 44.032C12.306 43.5654 12.11 43.234 11.718 43.038C11.3353 42.8327 10.8593 42.73 10.29 42.73H9.66V41.008H10.346C11.5033 41.008 12.082 40.616 12.082 39.832C12.082 39.496 11.9607 39.23 11.718 39.034C11.4753 38.838 11.1813 38.74 10.836 38.74C10.5 38.74 10.206 38.8427 9.954 39.048C9.71133 39.244 9.55267 39.51 9.478 39.846L7.294 39.342C7.52733 38.5394 7.98467 37.9187 8.666 37.48C9.34733 37.0414 10.122 36.822 10.99 36.822C11.942 36.822 12.7587 37.0647 13.44 37.55C14.1307 38.0354 14.476 38.726 14.476 39.622C14.476 40.154 14.322 40.616 14.014 41.008C13.706 41.3907 13.3047 41.6474 12.81 41.778V41.82C13.37 41.9507 13.8273 42.2307 14.182 42.66C14.5367 43.08 14.714 43.5654 14.714 44.116Z" fill="#2B7BBD"/>
<path d="M18.6968 44.802C18.9768 45.0634 19.1168 45.3854 19.1168 45.768C19.1168 46.1507 18.9768 46.4774 18.6968 46.748C18.4261 47.0094 18.0994 47.14 17.7168 47.14C17.3248 47.14 16.9888 47.0094 16.7088 46.748C16.4288 46.4867 16.2888 46.1647 16.2888 45.782C16.2888 45.3994 16.4288 45.0727 16.7088 44.802C16.9888 44.5314 17.3248 44.396 17.7168 44.396C18.0994 44.396 18.4261 44.5314 18.6968 44.802Z" fill="#2B7BBD"/>
<path d="M27.948 43.724C27.948 44.8627 27.5747 45.74 26.828 46.356C26.0814 46.9627 25.1807 47.266 24.126 47.266C23.2114 47.266 22.4134 47.042 21.732 46.594C21.0507 46.1367 20.5934 45.5207 20.36 44.746L22.502 44.088C22.6047 44.4427 22.8007 44.732 23.09 44.956C23.3887 45.1707 23.7247 45.278 24.098 45.278C24.518 45.278 24.868 45.152 25.148 44.9C25.4374 44.648 25.582 44.2934 25.582 43.836C25.582 43.2947 25.386 42.9074 24.994 42.674C24.602 42.4407 24.1214 42.324 23.552 42.324C22.74 42.324 21.9327 42.4687 21.13 42.758L21.368 37.088H27.444V39.104H23.454L23.37 40.672C23.6407 40.6067 23.972 40.574 24.364 40.574C25.4094 40.574 26.268 40.8494 26.94 41.4C27.612 41.9414 27.948 42.716 27.948 43.724Z" fill="#2B7BBD"/>
<path d="M37.0268 40.014C37.1762 40.6207 37.2508 41.288 37.2508 42.016C37.2508 42.744 37.1762 43.416 37.0268 44.032C36.8868 44.648 36.6675 45.2034 36.3688 45.698C36.0795 46.1834 35.6782 46.566 35.1648 46.846C34.6608 47.126 34.0682 47.266 33.3868 47.266C32.4908 47.266 31.7395 47.0187 31.1328 46.524C30.5355 46.0294 30.1108 45.404 29.8588 44.648C29.6162 43.8827 29.4948 43.0054 29.4948 42.016C29.4948 41.288 29.5648 40.6207 29.7048 40.014C29.8542 39.4074 30.0782 38.8614 30.3768 38.376C30.6755 37.8907 31.0815 37.5127 31.5948 37.242C32.1082 36.962 32.7055 36.822 33.3868 36.822C34.0682 36.822 34.6608 36.962 35.1648 37.242C35.6782 37.5127 36.0795 37.8907 36.3688 38.376C36.6675 38.8614 36.8868 39.4074 37.0268 40.014ZM34.8428 42.016C34.8428 41.652 34.8242 41.3067 34.7868 40.98C34.7495 40.644 34.6795 40.3034 34.5768 39.958C34.4835 39.6127 34.3342 39.3374 34.1288 39.132C33.9235 38.9174 33.6762 38.81 33.3868 38.81C33.0975 38.81 32.8455 38.9174 32.6308 39.132C32.4255 39.3374 32.2715 39.6127 32.1688 39.958C32.0755 40.3034 32.0055 40.644 31.9588 40.98C31.9215 41.3067 31.9028 41.652 31.9028 42.016C31.9028 42.38 31.9215 42.73 31.9588 43.066C32.0055 43.402 32.0755 43.7474 32.1688 44.102C32.2715 44.4474 32.4255 44.7274 32.6308 44.942C32.8362 45.1474 33.0882 45.25 33.3868 45.25C33.6762 45.25 33.9235 45.1474 34.1288 44.942C34.3342 44.7274 34.4835 44.4474 34.5768 44.102C34.6795 43.7474 34.7495 43.4067 34.7868 43.08C34.8242 42.744 34.8428 42.3894 34.8428 42.016Z" fill="#2B7BBD"/>
<path d="M41.1056 47V41.522H43.4926L44.8236 44.789H44.8456L46.0996 41.522H48.5086V47H46.7706V43.403H46.7376L45.3296 47H44.2296L42.8326 43.392H42.7996V47H41.1056Z" fill="#2B7BBD"/>
<path d="M0.646447 29.6464C0.451184 29.8417 0.451184 30.1583 0.646447 30.3536L3.82843 33.5355C4.02369 33.7308 4.34027 33.7308 4.53553 33.5355C4.7308 33.3403 4.7308 33.0237 4.53553 32.8284L1.70711 30L4.53553 27.1716C4.7308 26.9763 4.7308 26.6597 4.53553 26.4645C4.34027 26.2692 4.02369 26.2692 3.82843 26.4645L0.646447 29.6464ZM55.3536 30.3535C55.5488 30.1583 55.5488 29.8417 55.3536 29.6464L52.1716 26.4645C51.9763 26.2692 51.6597 26.2692 51.4645 26.4645C51.2692 26.6597 51.2692 26.9763 51.4645 27.1716L54.2929 30L51.4645 32.8284C51.2692 33.0237 51.2692 33.3403 51.4645 33.5355C51.6597 33.7308 51.9763 33.7308 52.1716 33.5355L55.3536 30.3535ZM1 30.5L55 30.5L55 29.5L1 29.5L1 30.5Z" fill="#2B7BBD"/>
<path d="M2.876 21V12.504H8.852V14.172H4.928V15.78H6.248C7.2 15.78 7.972 15.992 8.564 16.416C9.164 16.832 9.464 17.488 9.464 18.384C9.464 19.256 9.16 19.912 8.552 20.352C7.952 20.784 7.188 21 6.26 21H2.876ZM4.928 19.368H6.032C6.944 19.368 7.4 19.036 7.4 18.372C7.4 17.708 6.944 17.376 6.032 17.376H4.928V19.368ZM10.4613 21V12.504H16.1733V14.244H12.4413V15.84H15.9693V17.484H12.4413V19.248H16.3893V21H10.4613ZM20.1384 21.228C18.6664 21.228 17.5144 20.804 16.6824 19.956L17.9064 18.624C18.3784 19.224 19.0184 19.524 19.8264 19.524C20.2184 19.524 20.5544 19.424 20.8344 19.224C21.1144 19.024 21.2544 18.756 21.2544 18.42C21.2544 17.708 20.6904 17.352 19.5624 17.352H18.8784V15.876H19.6104C20.5784 15.876 21.0624 15.544 21.0624 14.88C21.0624 14.6 20.9384 14.38 20.6904 14.22C20.4424 14.052 20.1624 13.968 19.8504 13.968C19.1384 13.968 18.5664 14.216 18.1344 14.712L16.9464 13.452C17.7144 12.668 18.7424 12.276 20.0304 12.276C20.9664 12.276 21.7144 12.48 22.2744 12.888C22.8344 13.296 23.1144 13.856 23.1144 14.568C23.1144 15.064 22.9824 15.484 22.7184 15.828C22.4544 16.172 22.1184 16.4 21.7104 16.512V16.548C22.2064 16.684 22.6064 16.928 22.9104 17.28C23.2144 17.624 23.3664 18.068 23.3664 18.612C23.3664 19.164 23.2024 19.648 22.8744 20.064C22.5464 20.472 22.1424 20.768 21.6624 20.952C21.1824 21.136 20.6744 21.228 20.1384 21.228ZM27.0063 21V12.504H29.0583V19.248H31.7343V12.504H33.7863V19.248H36.4623V12.504H38.5143V21H27.0063ZM39.9119 21V12.504H43.2959C43.6559 12.504 43.9919 12.54 44.3039 12.612C44.6239 12.676 44.9319 12.788 45.2279 12.948C45.5239 13.1 45.7559 13.328 45.9239 13.632C46.0999 13.928 46.1879 14.28 46.1879 14.688C46.1879 15.144 46.0639 15.528 45.8159 15.84C45.5679 16.152 45.2279 16.38 44.7959 16.524V16.548C45.3079 16.636 45.7239 16.856 46.0439 17.208C46.3719 17.552 46.5359 17.992 46.5359 18.528C46.5359 18.968 46.4439 19.356 46.2599 19.692C46.0839 20.02 45.8359 20.276 45.5159 20.46C45.2039 20.644 44.8599 20.78 44.4839 20.868C44.1159 20.956 43.7199 21 43.2959 21H39.9119ZM41.8919 19.344H43.0439C44.0039 19.344 44.4839 19.008 44.4839 18.336C44.4839 17.712 43.9999 17.4 43.0319 17.4H41.8919V19.344ZM41.8919 15.888H42.9959C43.3799 15.888 43.6759 15.808 43.8839 15.648C44.0999 15.488 44.2079 15.26 44.2079 14.964C44.2079 14.412 43.7719 14.136 42.8999 14.136H41.8919V15.888ZM46.4884 21L50.0524 12.504H52.0444L55.5724 21H53.2924L52.6324 19.332H49.3444L48.7204 21H46.4884ZM49.9324 17.688H52.0684L51.0124 14.772L49.9324 17.688Z" fill="#2B7BBD"/>
</svg>
