<svg width="57" height="56" viewBox="0 0 57 56" fill="none" xmlns="http://www.w3.org/2000/svg">
<path d="M16.588 43.724C16.588 44.8627 16.2147 45.74 15.468 46.356C14.7213 46.9627 13.8207 47.266 12.766 47.266C11.8513 47.266 11.0533 47.042 10.372 46.594C9.69067 46.1367 9.23333 45.5207 9 44.746L11.142 44.088C11.2447 44.4427 11.4407 44.732 11.73 44.956C12.0287 45.1707 12.3647 45.278 12.738 45.278C13.158 45.278 13.508 45.152 13.788 44.9C14.0773 44.648 14.222 44.2933 14.222 43.836C14.222 43.2947 14.026 42.9073 13.634 42.674C13.242 42.4407 12.7613 42.324 12.192 42.324C11.38 42.324 10.5727 42.4687 9.77 42.758L10.008 37.088H16.084V39.104H12.094L12.01 40.672C12.2807 40.6067 12.612 40.574 13.004 40.574C14.0493 40.574 14.908 40.8493 15.58 41.4C16.252 41.9413 16.588 42.716 16.588 43.724Z" fill="#2B7BBD"/>
<path d="M20.5848 44.802C20.8648 45.0633 21.0048 45.3853 21.0048 45.768C21.0048 46.1507 20.8648 46.4773 20.5848 46.748C20.3141 47.0093 19.9874 47.14 19.6048 47.14C19.2128 47.14 18.8768 47.0093 18.5968 46.748C18.3168 46.4867 18.1768 46.1647 18.1768 45.782C18.1768 45.3993 18.3168 45.0727 18.5968 44.802C18.8768 44.5313 19.2128 44.396 19.6048 44.396C19.9874 44.396 20.3141 44.5313 20.5848 44.802Z" fill="#2B7BBD"/>
<path d="M30.256 45.068H28.898V47H26.7V45.068H22.038V43.094L26.07 37.088H28.884V43.164H30.256V45.068ZM26.714 43.164V39.496H26.672L24.32 43.164H26.714Z" fill="#2B7BBD"/>
<path d="M38.8868 43.724C38.8868 44.8627 38.5135 45.74 37.7668 46.356C37.0202 46.9627 36.1195 47.266 35.0648 47.266C34.1502 47.266 33.3522 47.042 32.6708 46.594C31.9895 46.1367 31.5322 45.5207 31.2988 44.746L33.4408 44.088C33.5435 44.4427 33.7395 44.732 34.0288 44.956C34.3275 45.1707 34.6635 45.278 35.0368 45.278C35.4568 45.278 35.8068 45.152 36.0868 44.9C36.3762 44.648 36.5208 44.2933 36.5208 43.836C36.5208 43.2947 36.3248 42.9073 35.9328 42.674C35.5408 42.4407 35.0602 42.324 34.4908 42.324C33.6788 42.324 32.8715 42.4687 32.0688 42.758L32.3068 37.088H38.3828V39.104H34.3928L34.3088 40.672C34.5795 40.6067 34.9108 40.574 35.3028 40.574C36.3482 40.574 37.2068 40.8493 37.8788 41.4C38.5508 41.9413 38.8868 42.716 38.8868 43.724Z" fill="#2B7BBD"/>
<path d="M41.9936 47V41.522H44.3806L45.7116 44.789H45.7336L46.9876 41.522H49.3966V47H47.6586V43.403H47.6256L46.2176 47H45.1176L43.7206 43.392H43.6876V47H41.9936Z" fill="#2B7BBD"/>
<path d="M0.646447 29.6464C0.451184 29.8417 0.451184 30.1583 0.646447 30.3536L3.82843 33.5355C4.02369 33.7308 4.34027 33.7308 4.53553 33.5355C4.7308 33.3403 4.7308 33.0237 4.53553 32.8284L1.70711 30L4.53553 27.1716C4.7308 26.9763 4.7308 26.6597 4.53553 26.4645C4.34027 26.2692 4.02369 26.2692 3.82843 26.4645L0.646447 29.6464ZM55.3536 30.3535C55.5488 30.1583 55.5488 29.8417 55.3536 29.6464L52.1716 26.4645C51.9763 26.2692 51.6597 26.2692 51.4645 26.4645C51.2692 26.6597 51.2692 26.9763 51.4645 27.1716L54.2929 30L51.4645 32.8284C51.2692 33.0237 51.2692 33.3403 51.4645 33.5355C51.6597 33.7308 51.9763 33.7308 52.1716 33.5355L55.3536 30.3535ZM1 30.5L55 30.5L55 29.5L1 29.5L1 30.5Z" fill="#2B7BBD"/>
<path d="M2.876 21V12.504H8.852V14.172H4.928V15.78H6.248C7.2 15.78 7.972 15.992 8.564 16.416C9.164 16.832 9.464 17.488 9.464 18.384C9.464 19.256 9.16 19.912 8.552 20.352C7.952 20.784 7.188 21 6.26 21H2.876ZM4.928 19.368H6.032C6.944 19.368 7.4 19.036 7.4 18.372C7.4 17.708 6.944 17.376 6.032 17.376H4.928V19.368ZM10.4613 21V12.504H16.1733V14.244H12.4413V15.84H15.9693V17.484H12.4413V19.248H16.3893V21H10.4613ZM20.1384 21.228C18.6664 21.228 17.5144 20.804 16.6824 19.956L17.9064 18.624C18.3784 19.224 19.0184 19.524 19.8264 19.524C20.2184 19.524 20.5544 19.424 20.8344 19.224C21.1144 19.024 21.2544 18.756 21.2544 18.42C21.2544 17.708 20.6904 17.352 19.5624 17.352H18.8784V15.876H19.6104C20.5784 15.876 21.0624 15.544 21.0624 14.88C21.0624 14.6 20.9384 14.38 20.6904 14.22C20.4424 14.052 20.1624 13.968 19.8504 13.968C19.1384 13.968 18.5664 14.216 18.1344 14.712L16.9464 13.452C17.7144 12.668 18.7424 12.276 20.0304 12.276C20.9664 12.276 21.7144 12.48 22.2744 12.888C22.8344 13.296 23.1144 13.856 23.1144 14.568C23.1144 15.064 22.9824 15.484 22.7184 15.828C22.4544 16.172 22.1184 16.4 21.7104 16.512V16.548C22.2064 16.684 22.6064 16.928 22.9104 17.28C23.2144 17.624 23.3664 18.068 23.3664 18.612C23.3664 19.164 23.2024 19.648 22.8744 20.064C22.5464 20.472 22.1424 20.768 21.6624 20.952C21.1824 21.136 20.6744 21.228 20.1384 21.228ZM27.0063 21V12.504H29.0583V19.248H31.7343V12.504H33.7863V19.248H36.4623V12.504H38.5143V21H27.0063ZM39.9119 21V12.504H43.2959C43.6559 12.504 43.9919 12.54 44.3039 12.612C44.6239 12.676 44.9319 12.788 45.2279 12.948C45.5239 13.1 45.7559 13.328 45.9239 13.632C46.0999 13.928 46.1879 14.28 46.1879 14.688C46.1879 15.144 46.0639 15.528 45.8159 15.84C45.5679 16.152 45.2279 16.38 44.7959 16.524V16.548C45.3079 16.636 45.7239 16.856 46.0439 17.208C46.3719 17.552 46.5359 17.992 46.5359 18.528C46.5359 18.968 46.4439 19.356 46.2599 19.692C46.0839 20.02 45.8359 20.276 45.5159 20.46C45.2039 20.644 44.8599 20.78 44.4839 20.868C44.1159 20.956 43.7199 21 43.2959 21H39.9119ZM41.8919 19.344H43.0439C44.0039 19.344 44.4839 19.008 44.4839 18.336C44.4839 17.712 43.9999 17.4 43.0319 17.4H41.8919V19.344ZM41.8919 15.888H42.9959C43.3799 15.888 43.6759 15.808 43.8839 15.648C44.0999 15.488 44.2079 15.26 44.2079 14.964C44.2079 14.412 43.7719 14.136 42.8999 14.136H41.8919V15.888ZM46.4884 21L50.0524 12.504H52.0444L55.5724 21H53.2924L52.6324 19.332H49.3444L48.7204 21H46.4884ZM49.9324 17.688H52.0684L51.0124 14.772L49.9324 17.688Z" fill="#2B7BBD"/>
</svg>
