<svg width="56" height="56" viewBox="0 0 56 56" fill="none" xmlns="http://www.w3.org/2000/svg">
<circle cx="28" cy="28" r="28" fill="#6DCB34"/>
<path d="M4.54522 26.577C4.09789 26.577 3.73856 26.5367 3.46722 26.456L3.62122 24.894C3.76789 24.9453 3.92189 24.971 4.08322 24.971C4.38389 24.971 4.62589 24.8793 4.80922 24.696C4.99989 24.5127 5.15022 24.157 5.26022 23.629C5.37756 23.0937 5.43622 22.3713 5.43622 21.462V18.712H11.3762V26.5H9.49522V20.307H7.24022V21.385C7.24022 23.255 7.02756 24.5897 6.60222 25.389C6.17689 26.181 5.49122 26.577 4.54522 26.577Z" fill="white"/>
<path d="M13.3543 26.632C12.863 26.632 12.4487 26.588 12.1113 26.5L12.3423 24.949C12.599 25.0297 12.8337 25.07 13.0463 25.07C13.3617 25.07 13.6 24.993 13.7613 24.839C13.9227 24.6777 14.0987 24.41 14.2893 24.036L14.3223 23.97L11.3523 18.712H13.5193L15.3453 22.265L17.0613 18.712H19.1733L16.2583 24.256C16.0823 24.586 15.9393 24.8463 15.8293 25.037C15.7193 25.2277 15.5727 25.4403 15.3893 25.675C15.2133 25.9097 15.0373 26.0857 14.8613 26.203C14.6853 26.3203 14.469 26.4193 14.2123 26.5C13.9557 26.588 13.6697 26.632 13.3543 26.632Z" fill="white"/>
<path d="M23.3826 26.5V23.618C22.8033 23.7793 22.224 23.86 21.6446 23.86C20.7573 23.86 20.101 23.6803 19.6756 23.321C19.2576 22.9543 19.0486 22.375 19.0486 21.583V18.712H20.9076V21.11C20.9076 21.55 21.003 21.8617 21.1936 22.045C21.3916 22.2283 21.7143 22.32 22.1616 22.32C22.697 22.32 23.104 22.254 23.3826 22.122V18.712H25.2636V26.5H23.3826Z" fill="white"/>
<path d="M26.2113 26.5V18.712H28.0923V24.894H30.5453V18.712H32.4263V24.894H34.8793V18.712H36.7603V26.5H26.2113Z" fill="white"/>
<path d="M36.7544 26.5L40.0214 18.712H41.8474L45.0814 26.5H42.9914L42.3864 24.971H39.3724L38.8004 26.5H36.7544ZM39.9114 23.464H41.8694L40.9014 20.791L39.9114 23.464Z" fill="white"/>
<path d="M44.4601 26.5L46.4181 23.321C45.9341 23.1523 45.5564 22.8773 45.2851 22.496C45.0138 22.1147 44.8781 21.6527 44.8781 21.11C44.8781 20.274 45.1604 19.6653 45.7251 19.284C46.2971 18.9027 47.0378 18.712 47.9471 18.712H50.8071V26.5H48.9261V23.607H48.2661L46.6271 26.5H44.4601ZM48.1121 22.177H48.9261V20.208H48.0461C47.1661 20.208 46.7261 20.5307 46.7261 21.176C46.7261 21.5207 46.8544 21.7737 47.1111 21.935C47.3678 22.0963 47.7014 22.177 48.1121 22.177Z" fill="white"/>
<path d="M19.3832 40.6609V39H13.4321V31.212H15.3132V37.3939H18.3052V31.212H20.1861V37.3939H21.0332V40.6609H19.3832Z" fill="white"/>
<path d="M21.3981 39V31.212H26.6341V32.8069H23.2131V34.27H26.4471V35.777H23.2131V37.3939H26.8321V39H21.3981Z" fill="white"/>
<path d="M27.4198 39V31.212H29.3008V34.16H32.3368V31.212H34.2178V39H32.3368V35.7439H29.3008V39H27.4198Z" fill="white"/>
<path d="M34.2032 39L37.4702 31.212H39.2962L42.5302 39H40.4402L39.8352 37.471H36.8212L36.2492 39H34.2032ZM37.3602 35.9639H39.3182L38.3502 33.2909L37.3602 35.9639Z" fill="white"/>
</svg>
