<svg width="48" height="48" fill="none" xmlns="http://www.w3.org/2000/svg"><circle cx="24" cy="24" r="24" fill="#4F596C"/><path d="M32.024 19.11a8.878 8.878 0 002.476-.649 8.209 8.209 0 01-2.155 2.15c.014.176.014.352.014.541C32.36 26.657 28.022 33 20.104 33c-2.435 0-4.701-.69-6.604-1.866.336.04.685.054 1.035.054a8.78 8.78 0 005.345-1.785c-1.875-.041-3.47-1.245-4.016-2.895.266.054.532.068.812.068.392 0 .77-.054 1.133-.149-1.973-.379-3.456-2.056-3.456-4.07v-.055c.588.311 1.246.5 1.96.514-1.162-.744-1.918-2.015-1.918-3.462 0-.758.21-1.474.588-2.097a12.407 12.407 0 008.87 4.355 4.274 4.274 0 01-.112-.946c0-2.3 1.93-4.166 4.31-4.166 1.23 0 2.35.5 3.147 1.312a8.556 8.556 0 002.728-1.015 4.205 4.205 0 01-1.902 2.313z" fill="#fff"/></svg>