<svg width="40" height="40" fill="none" xmlns="http://www.w3.org/2000/svg"><circle cx="20" cy="20" r="20" fill="#4F596C"/><path fill-rule="evenodd" clip-rule="evenodd" d="M15 11a4 4 0 00-4 4v10a4 4 0 004 4h10a4 4 0 004-4V15a4 4 0 00-4-4H15zm11 4.304c0 .652-.522 1.043-1.044 1.043s-1.043-.521-1.043-1.043c0-.652.521-1.043 1.043-1.043.522 0 1.044.39 1.044 1.043zm-6 7.824c-1.696 0-3-1.304-3-3s1.304-3 3-3c1.695 0 3 1.304 3 3s-1.305 3-3 3zm0-7.696a4.676 4.676 0 00-4.696 4.696A4.676 4.676 0 0020 24.824a4.676 4.676 0 004.695-4.696A4.676 4.676 0 0020 15.432z" fill="#fff"/></svg>