<svg width="40" height="40" fill="none" xmlns="http://www.w3.org/2000/svg"><path d="M20 40c11.046 0 20-8.954 20-20S31.046 0 20 0 0 8.954 0 20s8.954 20 20 20z" fill="#4F596C"/><path d="M10.306 18.888c5.1-2.258 8.501-3.747 10.203-4.466 4.859-2.053 5.868-2.41 6.526-2.422.145-.002.469.034.678.207.177.146.226.343.25.481.023.139.052.454.029.7-.264 2.811-1.403 9.633-1.983 12.781-.245 1.333-.728 1.78-1.195 1.823-1.016.095-1.788-.682-2.772-1.338-1.54-1.025-2.41-1.664-3.904-2.665-1.728-1.156-.608-1.792.377-2.831.257-.272 4.734-4.41 4.82-4.785.011-.047.021-.222-.081-.314-.102-.092-.253-.06-.362-.036-.155.036-2.614 1.688-7.38 4.957-.698.487-1.33.724-1.897.712-.625-.014-1.826-.359-2.72-.654-1.095-.362-1.966-.553-1.89-1.168.04-.32.473-.647 1.301-.982z" fill="#fff"/></svg>