<svg width="1600" height="392" fill="none" xmlns="http://www.w3.org/2000/svg"><path d="M1496.68 188.035a68.357 68.357 0 0122.63 32.59h-117.7a62.778 62.778 0 0121.84-33.123 58.94 58.94 0 0136.75-11.748 57.577 57.577 0 0136.48 12.281zm32.22 116.463a70.022 70.022 0 01-24.5 15.758 87.233 87.233 0 01-31.96 5.611 72.86 72.86 0 01-42.61-12.558 74.544 74.544 0 01-26.62-32.319h200.78v-21.369a175.175 175.175 0 00-10.65-61.701 145.477 145.477 0 00-29.56-48.881 137.666 137.666 0 00-46.4-32.659 137.387 137.387 0 00-55.59-11.145 148.496 148.496 0 00-57.78 11.221 142.378 142.378 0 00-46.6 30.983c-27.39 27.697-42.71 65.157-42.61 104.168a139.817 139.817 0 0011.98 57.428 147.053 147.053 0 0032.49 46.747 148.13 148.13 0 0048.73 30.983 161.38 161.38 0 0060.18 11.214 184.24 184.24 0 0063.12-10.147 180.984 180.984 0 0054.59-32.59l-56.99-50.744zm-334.94-103.905a67.664 67.664 0 0116.24 23.187 67.766 67.766 0 015.32 27.827 68.042 68.042 0 01-5.24 27.783 67.942 67.942 0 01-16.06 23.238 73.152 73.152 0 01-24.3 15.608 72.884 72.884 0 01-28.43 4.957 92.067 92.067 0 01-33.02-5.874 83.141 83.141 0 01-26.63-16.028v-98.828a77.687 77.687 0 0126.63-16.831 93.132 93.132 0 0133.02-5.604 73.133 73.133 0 0128.28 5.031c9 3.529 17.22 8.808 24.19 15.534zm95.07-5.88a146.967 146.967 0 00-30.63-46.207 142.747 142.747 0 00-46.77-31.384 142.358 142.358 0 00-55.22-10.82 131.047 131.047 0 00-39.15 5.881 124.592 124.592 0 00-35.42 17.628V0l-86.275 18.695v373.944h85.215v-16.028a135.604 135.604 0 0034.62 14.691 145.142 145.142 0 0038.34 5.077 147.22 147.22 0 0057.26-11.221c35.01-14.217 62.98-41.785 77.76-76.656a141.85 141.85 0 0011.45-56.895 144.793 144.793 0 00-11.18-56.894zM863.481 18.695v373.944h86.286V0l-86.286 18.695zm-132.077 0v373.944h86.279V0l-86.279 18.695zm-138.688 169.34a68.326 68.326 0 0122.637 32.59H497.647a62.794 62.794 0 0121.836-33.123 58.953 58.953 0 0136.751-11.748 57.577 57.577 0 0136.482 12.281zm32.222 116.463a69.975 69.975 0 01-24.501 15.758 87.223 87.223 0 01-31.952 5.611 72.854 72.854 0 01-42.608-12.558 74.512 74.512 0 01-26.628-32.319h200.787v-21.369a175.383 175.383 0 00-10.655-61.701 145.357 145.357 0 00-29.556-48.881 137.717 137.717 0 00-46.405-32.661 137.366 137.366 0 00-55.591-11.143 148.57 148.57 0 00-57.786 11.221 142.41 142.41 0 00-46.599 30.983c-27.389 27.697-42.712 65.157-42.608 104.168a139.82 139.82 0 0011.982 57.428 147.028 147.028 0 0032.491 46.747 148.11 148.11 0 0048.732 30.983 161.385 161.385 0 0060.183 11.214 184.175 184.175 0 0063.11-10.147 180.992 180.992 0 0054.589-32.59l-56.985-50.744zm-420.693-75.326l48.996 163.467h82.556l77.226-282.597H332.6l-41.012 166.674-50.591-166.674h-71.369L119.03 276.183 77.486 110.042H-4l76.694 282.597h83.088l48.463-163.467z" fill="#fff"/></svg>